<svg width="400" height="400" viewBox="0 0 400 400" fill="none" xmlns="http://www.w3.org/2000/svg">
<path d="M121.205 361.487C131.589 361.487 140.006 369.933 140.006 380.351C140.006 390.769 131.589 399.214 121.205 399.215C110.822 399.215 102.404 390.769 102.403 380.351C102.403 369.933 110.821 361.487 121.205 361.487ZM256.985 52.075C303.299 52.075 340.844 89.7872 340.844 136.307C340.844 170.313 320.781 199.61 291.897 212.913C291.987 214.51 292.035 216.119 292.035 217.738C292.035 229.03 289.823 239.803 285.811 249.643C304.512 265.092 316.439 288.513 316.439 314.733C316.439 361.253 278.895 398.965 232.581 398.966C191.214 398.966 156.844 368.879 149.974 329.303C135.663 340.721 117.554 347.542 97.8584 347.542C51.5446 347.541 14 309.829 14 263.309C14.0001 237.854 25.2417 215.035 43.0107 199.59C41.3851 193.042 40.5215 186.192 40.5215 179.139C40.5215 132.619 78.066 94.907 124.38 94.907C144.016 94.907 162.076 101.687 176.366 113.043C186.417 77.8376 218.706 52.075 256.985 52.075ZM347.008 203.108C368.084 203.108 385.17 220.278 385.17 241.458C385.17 262.638 368.084 279.807 347.008 279.807C325.931 279.807 308.845 262.638 308.845 241.458C308.845 220.278 325.931 203.108 347.008 203.108ZM56.832 37.6316C73.1296 37.6316 86.3418 50.8991 86.3418 67.2654C86.3418 83.6317 73.1296 96.8992 56.832 96.8992C40.5345 96.8992 27.3223 83.6317 27.3223 67.2654C27.3223 50.8991 40.5345 37.6316 56.832 37.6316Z" fill="#9B93B3"/>
<ellipse cx="113.797" cy="216.742" rx="44.3885" ry="70.038" fill="#C9E4FD"/>
<ellipse cx="113.796" cy="234.485" rx="23.595" ry="45.5714" fill="#A993E7"/>
<ellipse cx="224.612" cy="216.742" rx="44.3885" ry="70.038" fill="#C9E4FD"/>
<ellipse cx="224.613" cy="234.485" rx="23.595" ry="45.5714" fill="#A993E7"/>
<ellipse cx="113.859" cy="263.683" rx="18.8013" ry="18.8636" fill="#C9E4FD"/>
<ellipse cx="223.927" cy="263.683" rx="18.8013" ry="18.8636" fill="#C9E4FD"/>
<circle cx="216.892" cy="198.314" r="11.7664" fill="#C9E4FD"/>
<circle cx="101.968" cy="198.314" r="11.7664" fill="#C9E4FD"/>
<path d="M365.186 213.217C354.436 206.766 354.188 211.492 353.42 216.431C363.07 219.482 378.696 228.883 374.898 258.913C374.898 258.913 386.104 225.77 365.186 213.217Z" fill="#C9E4FD"/>
<path d="M68.9495 44.4878C59.9262 39.0924 59.7177 43.0457 59.0732 47.1764C67.1728 49.7276 80.2888 57.5897 77.1013 82.7049C77.1013 82.7049 86.5072 54.9864 68.9495 44.4878Z" fill="#C9E4FD"/>
<path d="M129.944 366.835C124.803 363.775 124.685 366.017 124.317 368.359C128.932 369.806 136.404 374.264 134.588 388.506C134.588 388.506 139.946 372.788 129.944 366.835Z" fill="#C9E4FD"/>
<ellipse cx="80.389" cy="295.251" rx="26.749" ry="12.6082" transform="rotate(-0.206615 80.389 295.251)" fill="#C7C7C7"/>
<ellipse cx="265.787" cy="292.761" rx="26.749" ry="12.6082" transform="rotate(-0.206615 265.787 292.761)" fill="#C7C7C7"/>
<circle cx="113.292" cy="223.332" r="50.1618" fill="#9BF1E8" fill-opacity="0.4" stroke="black" stroke-width="7.16598"/>
<circle cx="54.1727" cy="231.573" r="5.37448" stroke="black" stroke-width="4.29959"/>
<circle cx="47.0067" cy="220.824" r="5.37448" stroke="black" stroke-width="4.29959"/>
<circle cx="39.8407" cy="208.642" r="5.37448" stroke="black" stroke-width="4.29959"/>
<path d="M106.125 33.0753V115.484H298.173V33.0753H106.125Z" fill="#0B0A0A" stroke="black" stroke-width="0.716598"/>
<path d="M106.125 61.381V94.3445H298.89V61.381H106.125Z" fill="#C7C7C7"/>
<path d="M59.1885 37.3749L202.15 19.46L345.469 37.3749L202.15 81.804L59.1885 37.3749Z" fill="#0F0E0E" stroke="black" stroke-width="0.716598"/>
<path d="M338.662 127.666C338.662 127.666 334.004 96.4943 338.662 92.553C337.587 82.8789 344.681 70.4818 345.828 92.553C346.974 114.624 341.528 125.158 338.662 127.666Z" fill="#080000"/>
<path d="M338.661 39.883L345.469 37.8545V92.9113H338.303L338.661 39.883Z" fill="#D9D9D9"/>
</svg>
