<svg width="400" height="400" viewBox="0 0 400 400" fill="none" xmlns="http://www.w3.org/2000/svg">
<path d="M256.985 33.4432C303.299 33.4433 340.844 71.1555 340.844 117.676C340.844 151.681 320.781 180.978 291.897 194.281C291.987 195.878 292.035 197.487 292.035 199.106C292.035 210.398 289.823 221.171 285.811 231.012C304.512 246.46 316.439 269.881 316.439 296.101C316.439 342.622 278.895 380.334 232.581 380.334C191.214 380.334 156.844 350.248 149.974 310.672C135.663 322.089 117.554 328.91 97.8584 328.91C51.5446 328.91 14 291.198 14 244.678C14.0001 219.222 25.2423 196.403 43.0117 180.958C41.3861 174.411 40.5215 167.561 40.5215 160.508C40.5216 113.988 78.066 76.2753 124.38 76.2753C144.016 76.2753 162.076 83.0555 176.366 94.411C186.417 59.206 218.706 33.4432 256.985 33.4432Z" fill="#C63838"/>
<ellipse cx="113.796" cy="198.111" rx="44.3885" ry="70.038" fill="#C9E4FD"/>
<ellipse cx="113.796" cy="215.854" rx="23.595" ry="45.5714" fill="#A993E7"/>
<ellipse cx="224.612" cy="198.111" rx="44.3885" ry="70.038" fill="#C9E4FD"/>
<ellipse cx="224.612" cy="215.854" rx="23.595" ry="45.5714" fill="#A993E7"/>
<ellipse cx="124.499" cy="227.762" rx="18.8013" ry="18.8636" fill="#C9E4FD"/>
<ellipse cx="235.571" cy="227.762" rx="18.8013" ry="18.8636" fill="#C9E4FD"/>
<circle cx="216.892" cy="179.683" r="11.7664" fill="#C9E4FD"/>
<circle cx="101.968" cy="179.683" r="11.7664" fill="#C9E4FD"/>
<ellipse cx="331.639" cy="220.705" rx="26.0115" ry="26.1388" fill="#C63838"/>
<path d="M344.03 201.456C336.702 197.059 336.533 200.281 336.01 203.647C342.587 205.727 353.238 212.134 350.649 232.602C350.649 232.602 358.287 210.012 344.03 201.456Z" fill="#C9E4FD"/>
<ellipse cx="49.6962" cy="55.7998" rx="22.3735" ry="22.4679" fill="#C63838"/>
<path d="M58.8835 38.5302C52.0422 34.4395 51.8841 37.4368 51.3955 40.5686C57.5364 42.5029 67.4808 48.4639 65.0641 67.5058C65.0641 67.5058 72.1955 46.4901 58.8835 38.5302Z" fill="#C9E4FD"/>
<ellipse cx="131.708" cy="353.185" rx="10.9627" ry="10.999" fill="#C63838"/>
<path d="M136.804 345.303C133.807 343.519 133.738 344.827 133.523 346.192C136.214 347.036 140.571 349.636 139.512 357.94C139.512 357.94 142.636 348.775 136.804 345.303Z" fill="#C9E4FD"/>
<ellipse cx="69.431" cy="281.081" rx="26.749" ry="12.6082" transform="rotate(-0.206615 69.431 281.081)" fill="#840D0D"/>
<ellipse cx="269.362" cy="282.514" rx="26.749" ry="12.6082" transform="rotate(-0.206615 269.362 282.514)" fill="#840D0D"/>
<ellipse cx="113.222" cy="261.21" rx="52.6699" ry="8.59917" fill="#C63838"/>
<ellipse cx="216.412" cy="261.21" rx="52.6699" ry="8.59917" fill="#C63838"/>
<path d="M31.1982 227.53C89.5116 278.883 146.185 270.17 167.232 259.395C179.767 252.977 177.91 278.329 167.232 283.87C81.8598 328.175 39.091 260.626 31.1982 227.53Z" fill="#510000"/>
<path d="M312.104 227.53C253.791 278.883 197.118 270.17 176.071 259.395C163.535 252.977 165.392 278.329 176.071 283.87C261.443 328.175 304.212 260.626 312.104 227.53Z" fill="#510000"/>
</svg>
