<svg width="400" height="400" viewBox="0 0 400 400" fill="none" xmlns="http://www.w3.org/2000/svg">
<path d="M122.289 341.542C132.584 341.542 140.93 349.928 140.93 360.271C140.929 370.615 132.584 379 122.289 379C111.994 379 103.649 370.615 103.648 360.271C103.648 349.928 111.994 341.542 122.289 341.542ZM256.91 34.3398C302.828 34.34 340.053 71.783 340.053 117.971C340.053 151.733 320.161 180.821 291.524 194.029C291.613 195.615 291.66 197.212 291.66 198.82C291.66 210.031 289.467 220.727 285.488 230.497C304.03 245.835 315.856 269.089 315.856 295.122C315.856 341.31 278.632 378.753 232.714 378.753C191.7 378.753 157.623 348.881 150.812 309.588C136.623 320.923 118.67 327.696 99.1426 327.696C53.2242 327.696 16 290.253 16 244.065C16.0001 218.792 27.1464 196.137 44.7637 180.802C43.1518 174.301 42.2949 167.5 42.2949 160.497C42.2949 114.309 79.5191 76.8662 125.438 76.8662C144.906 76.8663 162.811 83.5978 176.979 94.8721C186.945 59.9186 218.958 34.3398 256.91 34.3398ZM346.163 184.294C367.06 184.294 384 201.341 384 222.37C384 243.399 367.06 260.446 346.163 260.446C325.266 260.446 308.326 243.399 308.326 222.37C308.326 201.341 325.266 184.294 346.163 184.294ZM58.4658 20C74.6241 20 87.7235 33.1726 87.7236 49.4219C87.7236 65.6713 74.6242 78.8447 58.4658 78.8447C42.3076 78.8445 29.209 65.6712 29.209 49.4219C29.2091 33.1727 42.3077 20.0002 58.4658 20Z" fill="#A993E7"/>
<ellipse cx="114.944" cy="197.831" rx="44.0094" ry="69.5377" fill="#C9E4FD"/>
<ellipse cx="114.944" cy="215.447" rx="23.3935" ry="45.2459" fill="#A993E7"/>
<ellipse cx="224.813" cy="197.831" rx="44.0094" ry="69.5377" fill="#C9E4FD"/>
<ellipse cx="224.813" cy="215.447" rx="23.3935" ry="45.2459" fill="#A993E7"/>
<ellipse cx="115.005" cy="244.437" rx="18.6407" ry="18.7288" fill="#C9E4FD"/>
<ellipse cx="224.134" cy="244.437" rx="18.6407" ry="18.7288" fill="#C9E4FD"/>
<ellipse cx="217.16" cy="179.535" rx="11.6659" ry="11.6823" fill="#C9E4FD"/>
<ellipse cx="103.216" cy="179.535" rx="11.6659" ry="11.6823" fill="#C9E4FD"/>
<path d="M364.186 194.331C353.528 187.926 353.282 192.619 352.521 197.523C362.088 200.551 377.581 209.885 373.815 239.7C373.815 239.7 384.926 206.794 364.186 194.331Z" fill="#C9E4FD"/>
<path d="M70.4803 26.8073C61.5341 21.4504 61.3275 25.3755 60.6885 29.4766C68.7188 32.0096 81.7229 39.8156 78.5625 64.7514C78.5625 64.7514 87.8881 37.2308 70.4803 26.8073Z" fill="#C9E4FD"/>
<path d="M130.954 346.851C125.857 343.814 125.74 346.039 125.375 348.365C129.95 349.801 137.359 354.228 135.558 368.368C135.558 368.368 140.871 352.762 130.954 346.851Z" fill="#C9E4FD"/>
<ellipse cx="26.5205" cy="12.5182" rx="26.5205" ry="12.5182" transform="matrix(0.999994 -0.00361118 0.00360102 0.999994 55.2568 263.357)" fill="#E59EFF"/>
<ellipse cx="26.5205" cy="12.5182" rx="26.5205" ry="12.5182" transform="matrix(0.999994 -0.00361118 0.00360102 0.999994 239.071 260.885)" fill="#E59EFF"/>
</svg>
