<svg width="400" height="400" viewBox="0 0 400 400" fill="none" xmlns="http://www.w3.org/2000/svg">
<path d="M121.205 342.855C131.589 342.856 140.006 351.302 140.006 361.72C140.006 372.138 131.589 380.583 121.205 380.583C110.822 380.583 102.404 372.138 102.403 361.72C102.403 351.302 110.821 342.855 121.205 342.855ZM256.985 33.4434C303.299 33.4434 340.844 71.1556 340.844 117.676C340.844 151.681 320.781 180.978 291.897 194.281C291.987 195.878 292.035 197.487 292.035 199.106C292.035 210.398 289.823 221.171 285.811 231.012C304.512 246.46 316.439 269.882 316.439 296.102C316.439 342.622 278.895 380.334 232.581 380.334C191.214 380.334 156.844 350.248 149.974 310.672C135.663 322.089 117.554 328.91 97.8584 328.91C51.5446 328.91 14 291.198 14 244.678C14.0001 219.222 25.2417 196.403 43.0107 180.958C41.3851 174.411 40.5215 167.561 40.5215 160.508C40.5215 113.988 78.066 76.2754 124.38 76.2754C144.016 76.2754 162.076 83.0556 176.366 94.4111C186.417 59.206 218.706 33.4434 256.985 33.4434ZM347.008 184.477C368.084 184.477 385.17 201.646 385.17 222.826C385.17 244.006 368.084 261.176 347.008 261.176C325.931 261.176 308.845 244.006 308.845 222.826C308.845 201.646 325.931 184.477 347.008 184.477ZM56.832 19C73.1296 19 86.3418 32.2675 86.3418 48.6338C86.3418 65.0001 73.1296 78.2676 56.832 78.2676C40.5345 78.2676 27.3223 65.0001 27.3223 48.6338C27.3223 32.2675 40.5345 19 56.832 19Z" fill="#AAAAAA"/>
<ellipse cx="113.796" cy="198.111" rx="44.3885" ry="70.038" fill="white"/>
<ellipse cx="113.796" cy="215.854" rx="23.595" ry="45.5714" fill="#28545C"/>
<ellipse cx="224.612" cy="198.111" rx="44.3885" ry="70.038" fill="white"/>
<ellipse cx="224.612" cy="215.854" rx="23.595" ry="45.5714" fill="#28545C"/>
<ellipse cx="113.858" cy="245.052" rx="18.8013" ry="18.8636" fill="white"/>
<ellipse cx="223.927" cy="245.052" rx="18.8013" ry="18.8636" fill="white"/>
<circle cx="216.892" cy="179.683" r="11.7664" fill="white"/>
<circle cx="101.968" cy="179.683" r="11.7664" fill="white"/>
<path d="M365.186 194.585C354.436 188.134 354.188 192.861 353.42 197.8C363.07 200.85 378.696 210.251 374.898 240.281C374.898 240.281 386.104 207.138 365.186 194.585Z" fill="#A5A5A5"/>
<path d="M68.9495 25.8562C59.9262 20.4608 59.7177 24.4141 59.0732 28.5448C67.1728 31.096 80.2888 38.9582 77.1013 64.0733C77.1013 64.0733 86.5072 36.3548 68.9495 25.8562Z" fill="#A5A5A5"/>
<path d="M129.944 348.203C124.803 345.143 124.685 347.385 124.317 349.728C128.932 351.174 136.404 355.633 134.588 369.875C134.588 369.875 139.946 354.156 129.944 348.203Z" fill="#A5A5A5"/>
<ellipse cx="80.389" cy="276.62" rx="26.749" ry="12.6082" transform="rotate(-0.206615 80.389 276.62)" fill="#28545C"/>
<ellipse cx="265.787" cy="274.129" rx="26.749" ry="12.6082" transform="rotate(-0.206615 265.787 274.129)" fill="#28545C"/>
</svg>
